<?xml version="1.0" standalone="no"?>
<!DOCTYPE svg PUBLIC "-//W3C//DTD SVG 20010904//EN"
 "http://www.w3.org/TR/2001/REC-SVG-20010904/DTD/svg10.dtd">
<svg version="1.0" xmlns="http://www.w3.org/2000/svg"
 width="640.000000pt" height="640.000000pt" viewBox="0 0 640.000000 640.000000"
 preserveAspectRatio="xMidYMid meet">
<metadata>
Created by potrace 1.14, written by Peter Selinger 2001-2017
</metadata>
<g transform="translate(0.000000,640.000000) scale(0.100000,-0.100000)"
fill="#000000" stroke="none">
<path d="M1471 6023 l3 -378 -339 -3 c-298 -2 -341 -4 -357 -19 -17 -15 -18
-113 -18 -2473 0 -2360 1 -2458 18 -2473 16 -15 59 -17 357 -19 l339 -3 -3
-327 -3 -328 41 0 41 0 0 333 c0 327 0 334 21 353 20 18 55 19 948 25 509 4
1423 7 2030 7 913 1 1107 3 1118 14 20 21 20 4815 0 4836 -11 11 -205 13
-1118 14 -607 0 -1521 3 -2030 7 -893 6 -928 7 -948 25 -21 19 -21 25 -21 403
l0 383 -41 0 -41 0 3 -377z m642 -2102 c28 -5 58 -18 73 -32 l25 -23 -1 -704
c-1 -598 1 -707 13 -719 11 -12 75 -15 353 -16 437 -3 424 3 424 -177 0 -113
-6 -132 -53 -157 -29 -17 -77 -18 -607 -18 -618 0 -626 1 -649 51 -16 35 -16
1713 0 1748 12 25 42 41 89 49 45 8 284 6 333 -2z m1908 0 c129 -8 167 -13
220 -34 35 -14 88 -33 117 -42 83 -27 92 -47 92 -226 0 -134 -2 -147 -20 -164
-11 -10 -35 -18 -53 -18 -44 0 -195 57 -226 86 -14 14 -47 29 -73 36 -59 14
-307 15 -345 0 -34 -13 -80 -55 -99 -91 -21 -41 -17 -116 9 -163 29 -52 73
-73 183 -86 54 -7 115 -22 155 -39 66 -28 129 -43 225 -55 52 -7 114 -36 114
-55 0 -5 22 -21 49 -34 27 -14 72 -49 99 -78 47 -49 52 -60 76 -158 33 -133
33 -175 -3 -334 -28 -125 -31 -131 -73 -172 -23 -23 -56 -58 -73 -77 -23 -26
-44 -37 -85 -47 -30 -7 -80 -28 -112 -47 -51 -31 -67 -36 -170 -45 -122 -11
-424 -3 -498 13 -25 5 -71 21 -102 35 -32 13 -90 31 -130 39 -95 18 -103 21
-117 51 -17 39 -14 286 4 331 27 65 70 71 121 19 26 -26 45 -36 81 -41 50 -8
104 -30 162 -67 32 -20 51 -22 212 -26 167 -4 180 -3 223 18 62 30 89 70 94
140 4 53 2 60 -28 94 -53 60 -103 83 -198 91 -94 7 -155 24 -225 59 -27 14
-69 28 -95 31 -71 9 -128 33 -146 60 -9 14 -34 34 -56 45 -22 11 -47 34 -55
50 -9 17 -31 44 -50 61 -52 48 -59 81 -59 279 1 199 10 249 54 282 17 12 33
31 36 42 4 11 29 44 56 72 39 42 63 58 113 74 35 12 80 34 100 50 35 28 48 31
175 43 68 7 167 6 321 -2z"/>
</g>
</svg>
